<svg width="352" height="224" viewBox="0 0 352 224" fill="none" xmlns="http://www.w3.org/2000/svg">
<path opacity="0.35" d="M351.455 21.9635V202.093C351.455 202.457 351.445 202.81 351.424 203.174C351.414 203.433 351.383 203.693 351.372 203.953C350.427 214.675 341.419 223.09 330.459 223.09H21.5434C13.6683 223.09 6.81142 218.758 3.22711 212.337C3.13361 212.202 3.07126 212.088 3.00893 211.963C1.42975 209.023 0.546661 205.667 0.546661 202.093V21.9635C0.546661 21.496 0.557054 21.0285 0.598611 20.5609C0.609 20.3012 0.640163 20.0415 0.650553 19.7818C1.75182 9.22623 10.6866 0.977131 21.5434 0.977131H330.459C334.594 0.977131 338.479 2.19268 341.731 4.27054C344.453 6.00555 346.728 8.32236 348.411 11.0755C348.432 11.1275 348.474 11.169 348.495 11.221C350.375 14.3689 351.455 18.0364 351.455 21.9635Z" fill="url(#paint0_linear_3_505)"/>
<path d="M351.476 21.6414V201.771C351.476 202.239 351.466 202.706 351.424 203.174C351.414 203.433 351.383 203.693 351.372 203.953C350.271 214.508 341.326 222.757 330.479 222.757H21.5642C16.6708 222.757 12.1827 221.095 8.60876 218.269C8.45292 218.165 8.29708 218.03 8.14124 217.906C3.50762 214.051 0.567444 208.244 0.567444 201.771V21.6414C0.567444 21.2778 0.577832 20.9142 0.59861 20.561C0.609 20.2701 0.640165 19.9895 0.660944 19.6986C1.63754 9.00806 10.6139 0.644684 21.5642 0.644684H330.479C334.614 0.644684 338.5 1.83945 341.752 3.93809C342.105 4.15626 342.458 4.39522 342.801 4.64456C343.009 4.81079 343.227 4.96663 343.435 5.15363C348.339 8.96651 351.476 14.9404 351.476 21.6414Z" fill="url(#paint1_linear_3_505)"/>
<mask id="mask0_3_505" style="mask-type:alpha" maskUnits="userSpaceOnUse" x="0" y="1" width="350" height="223">
<path d="M349.897 22.0984V202.405C349.897 202.873 349.887 203.341 349.845 203.809C349.835 204.069 349.804 204.329 349.794 204.589C348.698 215.155 339.8 223.412 329.01 223.412H21.7042C16.8363 223.412 12.3715 221.748 8.81621 218.919C8.66119 218.815 8.50616 218.68 8.35113 218.555C3.74165 214.697 0.816803 208.884 0.816803 202.405V22.0984C0.816803 21.7344 0.827137 21.3705 0.847807 21.0169C0.858142 20.7257 0.889145 20.4449 0.909816 20.1537C1.88132 9.45263 10.8109 1.08103 21.7042 1.08103H329.01C333.123 1.08103 336.988 2.27697 340.223 4.37767C340.575 4.59606 340.926 4.83525 341.267 5.08484C341.474 5.25123 341.691 5.40722 341.898 5.59441C346.776 9.41103 349.897 15.3907 349.897 22.0984Z" fill="url(#paint2_linear_3_505)"/>
</mask>
<g mask="url(#mask0_3_505)">
<path d="M147.555 54.9183L149.602 58.0767C150.381 59.2819 151.991 59.6143 153.186 58.8351L287.457 -28.383C288.663 -29.1622 288.995 -30.7726 288.216 -31.9673L286.169 -35.1257C285.39 -36.3308 283.78 -36.6633 282.585 -35.8841L148.314 51.3237C147.119 52.1132 146.776 53.7132 147.555 54.9183Z" fill="url(#paint3_linear_3_505)"/>
<path d="M189.206 49.7133L191.253 52.8717C192.032 54.0768 193.642 54.4093 194.837 53.6301L329.108 -33.5984C330.313 -34.3776 330.646 -35.988 329.866 -37.1827L327.82 -40.3411C327.041 -41.5462 325.43 -41.8787 324.235 -41.0995L189.964 46.1186C188.769 46.8978 188.427 48.5082 189.206 49.7133Z" fill="url(#paint4_linear_3_505)"/>
<path d="M170.983 79.6449L173.03 82.8032C173.809 84.0084 175.419 84.3408 176.614 83.5616L310.885 -3.65649C312.09 -4.43569 312.423 -6.04603 311.644 -7.2408L309.597 -10.3991C308.818 -11.6043 307.207 -11.9368 306.013 -11.1576L171.741 76.0606C170.547 76.8398 170.204 78.4397 170.983 79.6449Z" fill="url(#paint5_linear_3_505)"/>
<path d="M200.925 103.073L202.972 106.231C203.751 107.436 205.361 107.769 206.556 106.989L340.827 19.7714C342.032 18.9922 342.365 17.3818 341.586 16.1871L339.539 13.0287C338.76 11.8236 337.149 11.4911 335.955 12.2703L201.683 99.4884C200.478 100.268 200.135 101.868 200.925 103.073Z" fill="url(#paint6_linear_3_505)"/>
<path d="M185.299 75.7385L187.346 78.8968C188.125 80.102 189.736 80.4345 190.93 79.6553L325.202 -7.56287C326.407 -8.34207 326.739 -9.95241 325.96 -11.1472L323.913 -14.3055C323.134 -15.5107 321.524 -15.8431 320.329 -15.0639L186.058 72.1542C184.863 72.9334 184.52 74.5333 185.299 75.7385Z" fill="url(#paint7_linear_3_505)"/>
<path d="M197.019 66.6271L199.065 69.7854C199.844 70.9906 201.455 71.3231 202.65 70.5439L336.921 -16.6743C338.126 -17.4535 338.458 -19.0638 337.679 -20.2586L335.633 -23.4169C334.853 -24.6221 333.243 -24.9545 332.048 -24.1753L197.777 63.0428C196.572 63.822 196.239 65.4323 197.019 66.6271Z" fill="url(#paint8_linear_3_505)"/>
<path d="M122.829 119.986L124.875 123.145C125.655 124.35 127.265 124.682 128.46 123.903L262.731 36.6851C263.936 35.9059 264.268 34.2956 263.489 33.1008L261.443 29.9425C260.663 28.7373 259.053 28.4049 257.858 29.1841L123.587 116.402C122.392 117.181 122.049 118.792 122.829 119.986Z" fill="url(#paint9_linear_3_505)"/>
<path d="M213.932 106.979L215.979 110.137C216.758 111.343 218.369 111.675 219.563 110.896L353.835 23.6777C355.04 22.8985 355.372 21.2882 354.593 20.0934L352.546 16.9351C351.767 15.7299 350.157 15.3975 348.962 16.1767L214.691 103.395C213.496 104.174 213.153 105.774 213.932 106.979Z" fill="url(#paint10_linear_3_505)"/>
<path d="M144.958 133.004L147.005 136.163C147.784 137.368 149.394 137.7 150.589 136.921L284.86 49.7029C286.065 48.9237 286.398 47.3134 285.619 46.1186L283.572 42.9603C282.793 41.7551 281.182 41.4227 279.988 42.2019L145.716 129.42C144.511 130.199 144.179 131.81 144.958 133.004Z" fill="url(#paint11_linear_3_505)"/>
<path d="M174.889 162.946L176.936 166.105C177.715 167.31 179.326 167.642 180.52 166.863L314.792 79.6449C315.997 78.8657 316.329 77.2553 315.55 76.0606L313.503 72.9022C312.724 71.6971 311.114 71.3646 309.919 72.1438L175.648 159.362C174.453 160.131 174.11 161.741 174.889 162.946Z" fill="url(#paint12_linear_3_505)"/>
<path d="M211.335 99.1664L213.382 102.325C214.161 103.53 215.771 103.862 216.966 103.083L351.237 15.865C352.442 15.0858 352.775 13.4755 351.996 12.2807L349.949 9.12234C349.17 7.91719 347.559 7.58472 346.365 8.36392L212.093 95.5821C210.888 96.3613 210.556 97.9612 211.335 99.1664Z" fill="url(#paint13_linear_3_505)"/>
<path d="M258.191 79.6449L260.237 82.8032C261.017 84.0084 262.627 84.3408 263.822 83.5616L398.093 -3.65649C399.298 -4.43569 399.631 -6.04603 398.851 -7.2408L396.805 -10.3991C396.026 -11.6043 394.415 -11.9368 393.22 -11.1576L258.949 76.0606C257.744 76.8398 257.412 78.4397 258.191 79.6449Z" fill="url(#paint14_linear_3_505)"/>
<path d="M200.925 110.875L202.972 114.033C203.751 115.239 205.361 115.571 206.556 114.792L340.827 27.5737C342.032 26.7945 342.365 25.1842 341.586 23.9894L339.539 20.8311C338.76 19.6259 337.149 19.2935 335.955 20.0727L201.683 107.291C200.478 108.07 200.135 109.68 200.925 110.875Z" fill="url(#paint15_linear_3_505)"/>
<path d="M262.087 114.781L264.133 117.94C264.913 119.145 266.523 119.477 267.718 118.698L401.989 31.4801C403.194 30.7009 403.527 29.0906 402.747 27.8958L400.701 24.7374C399.922 23.5323 398.311 23.1998 397.116 23.979L262.845 111.197C261.65 111.976 261.308 113.587 262.087 114.781Z" fill="url(#paint16_linear_3_505)"/>
<path d="M180.094 103.073L182.141 106.231C182.92 107.436 184.531 107.769 185.725 106.989L319.997 19.7714C321.202 18.9922 321.534 17.3818 320.755 16.1871L318.708 13.0287C317.929 11.8236 316.319 11.4911 315.124 12.2703L180.853 99.4884C179.658 100.268 179.315 101.868 180.094 103.073Z" fill="url(#paint17_linear_3_505)"/>
<path d="M226.95 93.9613L228.997 97.1197C229.776 98.3248 231.386 98.6573 232.581 97.8781L366.852 10.66C368.058 9.88076 368.39 8.27042 367.611 7.07565L365.564 3.9173C364.785 2.71214 363.175 2.37969 361.98 3.15888L227.709 90.377C226.514 91.1562 226.171 92.7562 226.95 93.9613Z" fill="url(#paint18_linear_3_505)"/>
<path d="M232.155 125.202L234.202 128.36C234.981 129.565 236.591 129.898 237.786 129.119L372.057 41.9006C373.263 41.1214 373.595 39.511 372.816 38.3163L370.769 35.1579C369.99 33.9528 368.38 33.6203 367.185 34.3995L232.914 121.607C231.719 122.386 231.376 123.997 232.155 125.202Z" fill="url(#paint19_linear_3_505)"/>
<path d="M262.087 140.817L264.133 143.975C264.913 145.181 266.523 145.513 267.718 144.734L401.989 57.5157C403.194 56.7365 403.527 55.1261 402.747 53.9314L400.701 50.773C399.922 49.5679 398.311 49.2354 397.116 50.0146L262.845 137.233C261.65 138.012 261.308 139.612 262.087 140.817Z" fill="url(#paint20_linear_3_505)"/>
<path d="M180.094 138.209L182.141 141.368C182.92 142.573 184.531 142.905 185.725 142.126L319.997 54.908C321.202 54.1288 321.534 52.5184 320.755 51.3237L318.708 48.1653C317.929 46.9602 316.319 46.6277 315.124 47.4069L180.853 134.625C179.658 135.404 179.315 137.015 180.094 138.209Z" fill="url(#paint21_linear_3_505)"/>
<path d="M156.667 122.594L158.713 125.753C159.492 126.958 161.103 127.29 162.298 126.511L296.569 39.2929C297.774 38.5137 298.106 36.9033 297.327 35.7086L295.281 32.5502C294.501 31.345 292.891 31.0126 291.696 31.7918L157.425 119.01C156.23 119.789 155.887 121.389 156.667 122.594Z" fill="url(#paint22_linear_3_505)"/>
<path d="M-104.936 200.691L-102.889 203.849C-102.11 205.054 -100.5 205.387 -99.3048 204.607L34.9664 117.389C36.1716 116.61 36.504 115 35.7248 113.805L33.6781 110.647C32.8989 109.441 31.2886 109.109 30.0938 109.888L-104.177 197.096C-105.383 197.875 -105.725 199.485 -104.936 200.691Z" fill="url(#paint23_linear_3_505)"/>
<path d="M-63.2955 195.475L-61.2488 198.633C-60.4696 199.839 -58.8593 200.171 -57.6645 199.392L76.6067 112.174C77.8119 111.395 78.1443 109.784 77.3651 108.589L75.3184 105.431C74.5392 104.226 72.9289 103.894 71.7341 104.673L-62.5267 191.891C-63.7319 192.67 -64.0747 194.28 -63.2955 195.475Z" fill="url(#paint24_linear_3_505)"/>
<path d="M-81.5079 225.417L-79.4612 228.575C-78.682 229.781 -77.0717 230.113 -75.8769 229.334L58.3943 142.116C59.5995 141.337 59.9319 139.726 59.1527 138.531L57.106 135.373C56.3268 134.168 54.7165 133.835 53.5217 134.615L-80.7495 221.833C-81.9547 222.612 -82.2975 224.212 -81.5079 225.417Z" fill="url(#paint25_linear_3_505)"/>
<path d="M-51.5764 248.845L-49.5297 252.003C-48.7505 253.208 -47.1402 253.541 -45.9454 252.762L88.3258 165.544C89.531 164.764 89.8635 163.154 89.0843 161.959L87.0376 158.801C86.2584 157.596 84.648 157.263 83.4532 158.043L-50.818 245.261C-52.0128 246.04 -52.3556 247.64 -51.5764 248.845Z" fill="url(#paint26_linear_3_505)"/>
<path d="M-67.1915 221.511L-65.1448 224.669C-64.3656 225.874 -62.7553 226.207 -61.5605 225.427L72.7107 138.209C73.9159 137.43 74.2483 135.82 73.4691 134.625L71.4225 131.467C70.6432 130.262 69.0329 129.929 67.8381 130.708L-66.4331 217.926C-67.6383 218.706 -67.9811 220.306 -67.1915 221.511Z" fill="url(#paint27_linear_3_505)"/>
<path d="M-55.4828 212.399L-53.4361 215.558C-52.6569 216.763 -51.0465 217.095 -49.8518 216.316L84.4195 129.098C85.6246 128.319 85.9571 126.708 85.1779 125.514L83.1312 122.355C82.352 121.15 80.7417 120.818 79.5469 121.597L-54.7244 208.815C-55.9191 209.594 -56.262 211.194 -55.4828 212.399Z" fill="url(#paint28_linear_3_505)"/>
<path d="M-129.673 265.759L-127.626 268.917C-126.847 270.122 -125.237 270.455 -124.042 269.675L10.2295 182.457C11.4347 181.678 11.7671 180.068 10.9879 178.873L8.94124 175.715C8.16205 174.51 6.55168 174.177 5.35692 174.956L-128.904 262.174C-130.109 262.954 -130.452 264.564 -129.673 265.759Z" fill="url(#paint29_linear_3_505)"/>
<path d="M-38.5586 252.751L-36.5119 255.91C-35.7327 257.115 -34.1224 257.447 -32.9276 256.668L101.344 169.45C102.549 168.671 102.881 167.06 102.102 165.866L100.055 162.707C99.2762 161.502 97.6658 161.17 96.4711 161.949L-37.8002 249.157C-39.0054 249.946 -39.3378 251.546 -38.5586 252.751Z" fill="url(#paint30_linear_3_505)"/>
<path d="M-107.544 278.777L-105.497 281.935C-104.718 283.14 -103.107 283.472 -101.913 282.693L32.3587 195.475C33.5638 194.696 33.8963 193.086 33.1171 191.891L31.0704 188.732C30.2912 187.527 28.6809 187.195 27.4861 187.974L-106.785 275.192C-107.98 275.971 -108.323 277.582 -107.544 278.777Z" fill="url(#paint31_linear_3_505)"/>
<path d="M-77.612 308.718L-75.5653 311.877C-74.7861 313.082 -73.1758 313.414 -71.981 312.635L62.2903 225.417C63.4954 224.638 63.8279 223.028 63.0487 221.833L61.002 218.674C60.2228 217.469 58.6124 217.137 57.4177 217.916L-76.8432 305.124C-78.0483 305.903 -78.3912 307.513 -77.612 308.718Z" fill="url(#paint32_linear_3_505)"/>
<path d="M-41.1663 244.939L-39.1197 248.097C-38.3405 249.302 -36.7301 249.635 -35.5353 248.855L98.7359 161.637C99.9411 160.858 100.274 159.248 99.4943 158.053L97.4476 154.895C96.6684 153.689 95.0581 153.357 93.8633 154.136L-40.4079 241.354C-41.6027 242.133 -41.9455 243.733 -41.1663 244.939Z" fill="url(#paint33_linear_3_505)"/>
<path d="M5.6894 225.417L7.73609 228.575C8.51529 229.781 10.1256 230.113 11.3204 229.334L145.592 142.116C146.797 141.337 147.129 139.726 146.35 138.531L144.303 135.373C143.524 134.168 141.914 133.835 140.719 134.615L6.44781 221.833C5.25305 222.612 4.9102 224.212 5.6894 225.417Z" fill="url(#paint34_linear_3_505)"/>
<path d="M-51.5763 256.647L-49.5297 259.806C-48.7505 261.011 -47.1401 261.343 -45.9454 260.564L88.3259 173.346C89.5311 172.567 89.8635 170.956 89.0843 169.762L87.0376 166.603C86.2584 165.398 84.6481 165.066 83.4533 165.845L-50.8179 253.063C-52.0127 253.842 -52.3555 255.453 -51.5763 256.647Z" fill="url(#paint35_linear_3_505)"/>
<path d="M9.59577 260.554L11.6425 263.712C12.4217 264.917 14.032 265.25 15.2268 264.47L149.498 177.252C150.703 176.473 151.036 174.863 150.256 173.668L148.21 170.51C147.431 169.305 145.82 168.972 144.625 169.751L10.3542 256.969C9.15942 257.749 8.81658 259.359 9.59577 260.554Z" fill="url(#paint36_linear_3_505)"/>
<path d="M-72.4069 248.845L-70.3602 252.003C-69.581 253.208 -67.9707 253.541 -66.7759 252.762L67.4953 165.544C68.7005 164.764 69.0329 163.154 68.2537 161.959L66.207 158.801C65.4279 157.596 63.8175 157.263 62.6227 158.043L-71.6381 245.261C-72.8433 246.04 -73.1861 247.64 -72.4069 248.845Z" fill="url(#paint37_linear_3_505)"/>
<path d="M-25.5512 239.734L-23.5045 242.892C-22.7253 244.097 -21.115 244.43 -19.9202 243.65L114.351 156.432C115.556 155.653 115.889 154.043 115.109 152.848L113.063 149.69C112.284 148.484 110.673 148.152 109.478 148.931L-24.7928 236.149C-25.9876 236.928 -26.3304 238.528 -25.5512 239.734Z" fill="url(#paint38_linear_3_505)"/>
<path d="M-20.3358 270.964L-18.2891 274.122C-17.5099 275.327 -15.8995 275.66 -14.7048 274.881L119.566 187.662C120.772 186.883 121.104 185.273 120.325 184.078L118.278 180.92C117.499 179.715 115.889 179.382 114.694 180.161L-19.5773 267.379C-20.7825 268.159 -21.1254 269.769 -20.3358 270.964Z" fill="url(#paint39_linear_3_505)"/>
<path d="M9.59577 286.589L11.6425 289.748C12.4217 290.953 14.032 291.285 15.2268 290.506L149.498 203.288C150.703 202.509 151.036 200.898 150.256 199.704L148.21 196.545C147.431 195.34 145.82 195.008 144.625 195.787L10.3542 283.005C9.15942 283.784 8.81658 285.384 9.59577 286.589Z" fill="url(#paint40_linear_3_505)"/>
<path d="M-72.4069 283.982L-70.3602 287.14C-69.581 288.345 -67.9707 288.677 -66.7759 287.898L67.4953 200.68C68.7005 199.901 69.0329 198.291 68.2537 197.096L66.207 193.938C65.4279 192.732 63.8175 192.4 62.6227 193.179L-71.6381 280.397C-72.8433 281.176 -73.1861 282.787 -72.4069 283.982Z" fill="url(#paint41_linear_3_505)"/>
<path d="M-95.8348 268.366L-93.7881 271.525C-93.0089 272.73 -91.3986 273.062 -90.2038 272.283L44.0675 185.065C45.2726 184.286 45.6051 182.676 44.8259 181.481L42.7792 178.322C42 177.117 40.3896 176.785 39.1949 177.564L-95.066 264.782C-96.2711 265.561 -96.614 267.161 -95.8348 268.366Z" fill="url(#paint42_linear_3_505)"/>
</g>
<defs>
<linearGradient id="paint0_linear_3_505" x1="38.8958" y1="249.135" x2="313.105" y2="-25.0735" gradientUnits="userSpaceOnUse">
<stop stop-color="#F7931E"/>
<stop offset="1" stop-color="#ED1E79"/>
</linearGradient>
<linearGradient id="paint1_linear_3_505" x1="38.9179" y1="248.807" x2="313.124" y2="-25.3987" gradientUnits="userSpaceOnUse">
<stop stop-color="#ED1C24"/>
<stop offset="1" stop-color="#4F339A"/>
</linearGradient>
<linearGradient id="paint2_linear_3_505" x1="38.9674" y1="249.487" x2="313.437" y2="-23.2845" gradientUnits="userSpaceOnUse">
<stop stop-color="#ED1C24"/>
<stop offset="1" stop-color="#4F339A"/>
</linearGradient>
<linearGradient id="paint3_linear_3_505" x1="122.352" y1="77.8901" x2="269.908" y2="-49.6126" gradientUnits="userSpaceOnUse">
<stop stop-color="#ED1E79"/>
<stop offset="1" stop-color="#662D91"/>
</linearGradient>
<linearGradient id="paint4_linear_3_505" x1="164.001" y1="72.6819" x2="311.557" y2="-54.821" gradientUnits="userSpaceOnUse">
<stop stop-color="#ED1E79"/>
<stop offset="1" stop-color="#662D91"/>
</linearGradient>
<linearGradient id="paint5_linear_3_505" x1="145.777" y1="102.616" x2="293.334" y2="-24.8864" gradientUnits="userSpaceOnUse">
<stop stop-color="#ED1E79"/>
<stop offset="1" stop-color="#662D91"/>
</linearGradient>
<linearGradient id="paint6_linear_3_505" x1="175.711" y1="126.04" x2="323.267" y2="-1.46222" gradientUnits="userSpaceOnUse">
<stop stop-color="#ED1E79"/>
<stop offset="1" stop-color="#662D91"/>
</linearGradient>
<linearGradient id="paint7_linear_3_505" x1="160.094" y1="98.711" x2="307.65" y2="-28.7917" gradientUnits="userSpaceOnUse">
<stop stop-color="#ED1E79"/>
<stop offset="1" stop-color="#662D91"/>
</linearGradient>
<linearGradient id="paint8_linear_3_505" x1="171.809" y1="89.6002" x2="319.365" y2="-37.9026" gradientUnits="userSpaceOnUse">
<stop stop-color="#ED1E79"/>
<stop offset="1" stop-color="#662D91"/>
</linearGradient>
<linearGradient id="paint9_linear_3_505" x1="97.6186" y1="142.964" x2="245.175" y2="15.4611" gradientUnits="userSpaceOnUse">
<stop stop-color="#ED1E79"/>
<stop offset="1" stop-color="#662D91"/>
</linearGradient>
<linearGradient id="paint10_linear_3_505" x1="188.726" y1="129.944" x2="336.282" y2="2.44126" gradientUnits="userSpaceOnUse">
<stop stop-color="#ED1E79"/>
<stop offset="1" stop-color="#662D91"/>
</linearGradient>
<linearGradient id="paint11_linear_3_505" x1="119.744" y1="155.977" x2="267.3" y2="28.4743" gradientUnits="userSpaceOnUse">
<stop stop-color="#ED1E79"/>
<stop offset="1" stop-color="#662D91"/>
</linearGradient>
<linearGradient id="paint12_linear_3_505" x1="149.676" y1="185.908" x2="297.232" y2="58.4056" gradientUnits="userSpaceOnUse">
<stop stop-color="#ED1E79"/>
<stop offset="1" stop-color="#662D91"/>
</linearGradient>
<linearGradient id="paint13_linear_3_505" x1="186.123" y1="122.136" x2="333.679" y2="-5.3673" gradientUnits="userSpaceOnUse">
<stop stop-color="#ED1E79"/>
<stop offset="1" stop-color="#662D91"/>
</linearGradient>
<linearGradient id="paint14_linear_3_505" x1="232.979" y1="102.611" x2="380.535" y2="-24.8914" gradientUnits="userSpaceOnUse">
<stop stop-color="#ED1E79"/>
<stop offset="1" stop-color="#662D91"/>
</linearGradient>
<linearGradient id="paint15_linear_3_505" x1="175.71" y1="133.849" x2="323.266" y2="6.34652" gradientUnits="userSpaceOnUse">
<stop stop-color="#ED1E79"/>
<stop offset="1" stop-color="#662D91"/>
</linearGradient>
<linearGradient id="paint16_linear_3_505" x1="236.881" y1="137.75" x2="384.437" y2="10.2469" gradientUnits="userSpaceOnUse">
<stop stop-color="#ED1E79"/>
<stop offset="1" stop-color="#662D91"/>
</linearGradient>
<linearGradient id="paint17_linear_3_505" x1="154.886" y1="126.042" x2="302.443" y2="-1.46092" gradientUnits="userSpaceOnUse">
<stop stop-color="#ED1E79"/>
<stop offset="1" stop-color="#662D91"/>
</linearGradient>
<linearGradient id="paint18_linear_3_505" x1="201.742" y1="116.929" x2="349.298" y2="-10.574" gradientUnits="userSpaceOnUse">
<stop stop-color="#ED1E79"/>
<stop offset="1" stop-color="#662D91"/>
</linearGradient>
<linearGradient id="paint19_linear_3_505" x1="206.946" y1="148.163" x2="354.502" y2="20.6604" gradientUnits="userSpaceOnUse">
<stop stop-color="#ED1E79"/>
<stop offset="1" stop-color="#662D91"/>
</linearGradient>
<linearGradient id="paint20_linear_3_505" x1="236.879" y1="163.779" x2="384.436" y2="36.2762" gradientUnits="userSpaceOnUse">
<stop stop-color="#ED1E79"/>
<stop offset="1" stop-color="#662D91"/>
</linearGradient>
<linearGradient id="paint21_linear_3_505" x1="154.884" y1="161.181" x2="302.44" y2="33.6778" gradientUnits="userSpaceOnUse">
<stop stop-color="#ED1E79"/>
<stop offset="1" stop-color="#662D91"/>
</linearGradient>
<linearGradient id="paint22_linear_3_505" x1="131.458" y1="145.565" x2="279.014" y2="18.0618" gradientUnits="userSpaceOnUse">
<stop stop-color="#ED1E79"/>
<stop offset="1" stop-color="#662D91"/>
</linearGradient>
<linearGradient id="paint23_linear_3_505" x1="-130.152" y1="223.667" x2="17.4048" y2="96.1643" gradientUnits="userSpaceOnUse">
<stop stop-color="#ED1E79"/>
<stop offset="1" stop-color="#662D91"/>
</linearGradient>
<linearGradient id="paint24_linear_3_505" x1="-88.5028" y1="218.459" x2="59.0531" y2="90.9558" gradientUnits="userSpaceOnUse">
<stop stop-color="#ED1E79"/>
<stop offset="1" stop-color="#662D91"/>
</linearGradient>
<linearGradient id="paint25_linear_3_505" x1="-106.726" y1="248.393" x2="40.83" y2="120.89" gradientUnits="userSpaceOnUse">
<stop stop-color="#ED1E79"/>
<stop offset="1" stop-color="#662D91"/>
</linearGradient>
<linearGradient id="paint26_linear_3_505" x1="-76.7929" y1="271.817" x2="70.7636" y2="144.315" gradientUnits="userSpaceOnUse">
<stop stop-color="#ED1E79"/>
<stop offset="1" stop-color="#662D91"/>
</linearGradient>
<linearGradient id="paint27_linear_3_505" x1="-92.4092" y1="244.488" x2="55.1469" y2="116.985" gradientUnits="userSpaceOnUse">
<stop stop-color="#ED1E79"/>
<stop offset="1" stop-color="#662D91"/>
</linearGradient>
<linearGradient id="paint28_linear_3_505" x1="-80.6949" y1="235.377" x2="66.8612" y2="107.874" gradientUnits="userSpaceOnUse">
<stop stop-color="#ED1E79"/>
<stop offset="1" stop-color="#662D91"/>
</linearGradient>
<linearGradient id="paint29_linear_3_505" x1="-154.885" y1="288.741" x2="-7.32873" y2="161.238" gradientUnits="userSpaceOnUse">
<stop stop-color="#ED1E79"/>
<stop offset="1" stop-color="#662D91"/>
</linearGradient>
<linearGradient id="paint30_linear_3_505" x1="-63.778" y1="275.721" x2="83.7781" y2="148.218" gradientUnits="userSpaceOnUse">
<stop stop-color="#ED1E79"/>
<stop offset="1" stop-color="#662D91"/>
</linearGradient>
<linearGradient id="paint31_linear_3_505" x1="-132.76" y1="301.754" x2="14.7964" y2="174.251" gradientUnits="userSpaceOnUse">
<stop stop-color="#ED1E79"/>
<stop offset="1" stop-color="#662D91"/>
</linearGradient>
<linearGradient id="paint32_linear_3_505" x1="-102.827" y1="331.685" x2="44.7289" y2="204.182" gradientUnits="userSpaceOnUse">
<stop stop-color="#ED1E79"/>
<stop offset="1" stop-color="#662D91"/>
</linearGradient>
<linearGradient id="paint33_linear_3_505" x1="-66.3805" y1="267.912" x2="81.1759" y2="140.41" gradientUnits="userSpaceOnUse">
<stop stop-color="#ED1E79"/>
<stop offset="1" stop-color="#662D91"/>
</linearGradient>
<linearGradient id="paint34_linear_3_505" x1="-19.5247" y1="248.388" x2="128.031" y2="120.885" gradientUnits="userSpaceOnUse">
<stop stop-color="#ED1E79"/>
<stop offset="1" stop-color="#662D91"/>
</linearGradient>
<linearGradient id="paint35_linear_3_505" x1="-76.7935" y1="279.626" x2="70.7629" y2="152.123" gradientUnits="userSpaceOnUse">
<stop stop-color="#ED1E79"/>
<stop offset="1" stop-color="#662D91"/>
</linearGradient>
<linearGradient id="paint36_linear_3_505" x1="-15.6224" y1="283.527" x2="131.934" y2="156.024" gradientUnits="userSpaceOnUse">
<stop stop-color="#ED1E79"/>
<stop offset="1" stop-color="#662D91"/>
</linearGradient>
<linearGradient id="paint37_linear_3_505" x1="-97.6169" y1="271.818" x2="49.9391" y2="144.316" gradientUnits="userSpaceOnUse">
<stop stop-color="#ED1E79"/>
<stop offset="1" stop-color="#662D91"/>
</linearGradient>
<linearGradient id="paint38_linear_3_505" x1="-50.7619" y1="262.706" x2="96.7942" y2="135.203" gradientUnits="userSpaceOnUse">
<stop stop-color="#ED1E79"/>
<stop offset="1" stop-color="#662D91"/>
</linearGradient>
<linearGradient id="paint39_linear_3_505" x1="-45.558" y1="293.94" x2="101.998" y2="166.437" gradientUnits="userSpaceOnUse">
<stop stop-color="#ED1E79"/>
<stop offset="1" stop-color="#662D91"/>
</linearGradient>
<linearGradient id="paint40_linear_3_505" x1="-15.6242" y1="309.555" x2="131.932" y2="182.053" gradientUnits="userSpaceOnUse">
<stop stop-color="#ED1E79"/>
<stop offset="1" stop-color="#662D91"/>
</linearGradient>
<linearGradient id="paint41_linear_3_505" x1="-97.6195" y1="306.957" x2="49.9364" y2="179.455" gradientUnits="userSpaceOnUse">
<stop stop-color="#ED1E79"/>
<stop offset="1" stop-color="#662D91"/>
</linearGradient>
<linearGradient id="paint42_linear_3_505" x1="-121.046" y1="291.342" x2="26.5105" y2="163.839" gradientUnits="userSpaceOnUse">
<stop stop-color="#ED1E79"/>
<stop offset="1" stop-color="#662D91"/>
</linearGradient>
</defs>
</svg>
